<?xml version="1.0" encoding="UTF-8" standalone="no"?><svg xmlns="http://www.w3.org/2000/svg" xmlns:xlink="http://www.w3.org/1999/xlink" fill="#008037" height="52" preserveAspectRatio="xMidYMid meet" version="1" viewBox="1.0 1.0 22.0 22.0" width="52" zoomAndPan="magnify"><g id="change1_1"><path d="M3,12a1,1,0,0,1-2,0A11,11,0,0,1,12,1a10.86,10.86,0,0,1,7,2.55V3.17a1,1,0,0,1,2,0V6a1,1,0,0,1-1,1H17.17a1,1,0,0,1,0-2h.47A8.83,8.83,0,0,0,12,3,9,9,0,0,0,3,12Zm19-1a1,1,0,0,0-1,1,9,9,0,0,1-9,9,8.85,8.85,0,0,1-5.62-2h.45a1,1,0,0,0,0-2H4a1,1,0,0,0-1,1v2.83a1,1,0,0,0,2,0v-.38A10.86,10.86,0,0,0,12,23,11,11,0,0,0,23,12,1,1,0,0,0,22,11ZM15.37,9l-4.06,4L9.63,11.29a1,1,0,0,0-1.41,0,1,1,0,0,0,0,1.42l2.38,2.33a1,1,0,0,0,.7.28,1,1,0,0,0,.7-.28l4.76-4.67A1,1,0,0,0,15.37,9Z"/></g></svg>