<?xml version="1.0" encoding="UTF-8" standalone="no"?><svg xmlns="http://www.w3.org/2000/svg" xmlns:xlink="http://www.w3.org/1999/xlink" fill="#ffbd59" height="32" preserveAspectRatio="xMidYMid meet" version="1" viewBox="0.0 0.0 32.0 32.0" width="32" zoomAndPan="magnify"><g><g id="change1_1"><path d="M16,32C7.178,32,0,24.822,0,16S7.178,0,16,0s16,7.178,16,16S24.822,32,16,32z M16,2.32C8.455,2.32,2.318,8.455,2.318,16 c0,7.543,6.137,13.68,13.682,13.68c7.543,0,13.682-6.137,13.682-13.68C29.682,8.455,23.543,2.32,16,2.32z" fill="inherit"/></g><g id="change1_2"><path d="M16.33,24.303c-0.123-0.047-0.256-0.123-0.256-0.445c0-0.133,0.021-0.287,0.068-0.475l2.021-9.797 c0.045-0.23,0.068-0.471,0.068-0.711c0-0.633-0.195-1.115-0.58-1.434c-0.863-0.709-2.373-0.57-4.885,0.279l-0.244,0.082 l-0.1,1.264h0.422c1.279,0,1.588,0.1,1.652,0.131c0.086,0.041,0.133,0.09,0.133,0.234c0,0.08-0.01,0.17-0.031,0.27 c-0.025,0.133-0.055,0.287-0.084,0.453l-1.852,8.998c-0.086,0.453-0.131,0.842-0.131,1.152c0,0.717,0.207,1.271,0.611,1.645 c0.396,0.365,0.939,0.551,1.613,0.551c0.789,0,1.848-0.219,3.236-0.668l0.248-0.08l0.1-1.281H17.92 C16.971,24.471,16.533,24.379,16.33,24.303z" fill="inherit"/><path d="M18.99,6.049C18.609,5.686,18.119,5.5,17.535,5.5c-0.605,0-1.117,0.199-1.52,0.59c-0.406,0.393-0.613,0.922-0.613,1.574 c0,0.6,0.197,1.098,0.584,1.484c0.387,0.389,0.883,0.586,1.471,0.586c0.6,0,1.107-0.209,1.512-0.617 c0.402-0.408,0.605-0.938,0.605-1.576C19.574,6.918,19.379,6.416,18.99,6.049z" fill="inherit"/></g></g></svg>