<?xml version="1.0" encoding="UTF-8"?><svg xmlns="http://www.w3.org/2000/svg" xmlns:xlink="http://www.w3.org/1999/xlink" height="712.9" preserveAspectRatio="xMidYMid meet" version="1.0" viewBox="-15.0 -15.0 588.7 712.9" width="588.7" zoomAndPan="magnify"><defs><clipPath id="a"><path d="M 236 427 L 573.761719 427 L 573.761719 662 L 236 662 Z M 236 427"/></clipPath><clipPath id="b"><path d="M 0 391 L 307 391 L 307 697.929688 L 0 697.929688 Z M 0 391"/></clipPath><clipPath id="c"><path d="M 236 36 L 573.761719 36 L 573.761719 271 L 236 271 Z M 236 36"/></clipPath></defs><g><g clip-path="url(#a)" id="change1_3"><path d="M 236.484375 427.476562 L 236.484375 661.460938 L 457.9375 661.460938 C 521.90625 661.460938 573.761719 609.605469 573.761719 545.636719 L 573.761719 543.304688 C 573.761719 479.335938 521.90625 427.476562 457.9375 427.476562 L 236.484375 427.476562" fill="#ff3939"/></g><g id="change2_1"><path d="M 278.679688 661.460938 L 236.484375 661.460938 L 236.484375 427.476562 L 278.679688 427.476562 C 340.125 493.164062 340.125 595.773438 278.679688 661.460938" fill="#e03232"/></g><g clip-path="url(#b)" id="change1_2"><path d="M 44.945312 435.960938 C 104.875 376.03125 202.039062 376.03125 261.96875 435.960938 C 321.898438 495.890625 321.898438 593.054688 261.96875 652.984375 C 202.039062 712.914062 104.875 712.914062 44.945312 652.984375 C -14.980469 593.054688 -14.980469 495.890625 44.945312 435.960938" fill="#ff3939"/></g><g id="change1_1"><path d="M 81.257812 616.671875 L 22.613281 558.027344 L 21.136719 618.148438 L 19.65625 678.273438 L 79.78125 676.792969 L 139.902344 675.316406 L 81.257812 616.671875" fill="#ff3939"/></g><g id="change3_1"><path d="M 350.714844 586.304688 L 350.714844 502.515625 L 366.238281 502.515625 L 410.476562 563.570312 L 410.476562 502.515625 L 425.421875 502.515625 L 425.421875 586.304688 L 409.890625 586.304688 L 365.652344 523.960938 L 365.652344 586.304688 L 350.714844 586.304688" fill="#fff"/></g><g id="change3_2"><path d="M 471.710938 574.585938 C 481.671875 574.585938 486.652344 568.160156 486.652344 555.308594 C 486.652344 542.769531 481.671875 536.5 471.710938 536.5 C 461.75 536.5 456.769531 542.769531 456.769531 555.308594 C 456.769531 568.160156 461.75 574.585938 471.710938 574.585938 Z M 441.242188 555.542969 C 441.242188 534.917969 451.398438 524.605469 471.710938 524.605469 C 492.023438 524.605469 502.179688 534.917969 502.179688 555.542969 C 502.179688 576.128906 492.023438 586.421875 471.710938 586.421875 C 451.476562 586.421875 441.320312 576.128906 441.242188 555.542969" fill="#fff"/></g><g id="change3_3"><path d="M 194.101562 606.328125 L 91.601562 503.828125 L 112.816406 482.617188 L 215.316406 585.117188 L 194.101562 606.328125" fill="#fff"/></g><g id="change3_4"><path d="M 112.816406 606.328125 L 91.601562 585.117188 L 194.101562 482.617188 L 215.316406 503.828125 L 112.816406 606.328125" fill="#fff"/></g><g clip-path="url(#c)" id="change4_3"><path d="M 236.484375 36.46875 L 236.484375 270.453125 L 457.9375 270.453125 C 521.90625 270.453125 573.761719 218.597656 573.761719 154.625 L 573.761719 152.296875 C 573.761719 88.324219 521.90625 36.46875 457.9375 36.46875 L 236.484375 36.46875" fill="#00cc52"/></g><g id="change5_1"><path d="M 278.679688 270.453125 L 236.484375 270.453125 L 236.484375 36.46875 L 278.679688 36.46875 C 340.125 102.15625 340.125 204.765625 278.679688 270.453125" fill="#00b348"/></g><g id="change4_1"><path d="M 44.945312 44.953125 C 104.875 -14.976562 202.039062 -14.976562 261.96875 44.953125 C 321.898438 104.882812 321.898438 202.046875 261.96875 261.972656 C 202.039062 321.902344 104.875 321.902344 44.945312 261.972656 C -14.980469 202.046875 -14.980469 104.882812 44.945312 44.953125" fill="#00cc52"/></g><g id="change4_2"><path d="M 81.257812 225.664062 L 22.613281 167.019531 L 21.136719 227.140625 L 19.65625 287.261719 L 79.78125 285.785156 L 139.902344 284.308594 L 81.257812 225.664062" fill="#00cc52"/></g><g id="change3_5"><path d="M 329.765625 111.273438 L 346.464844 111.273438 L 370.019531 151.644531 L 392.164062 111.273438 L 408.277344 111.273438 L 377.460938 165.765625 L 377.460938 195.0625 L 361.933594 195.0625 L 361.933594 165.765625 L 329.765625 111.273438" fill="#fff"/></g><g id="change3_6"><path d="M 418.242188 158.96875 L 444.492188 158.96875 L 444.492188 158.5 C 444.492188 149.984375 440.195312 145.726562 431.601562 145.726562 C 423.398438 145.726562 418.945312 150.140625 418.242188 158.96875 Z M 431.601562 133.539062 C 450.273438 133.539062 459.609375 143.070312 459.609375 162.132812 C 459.609375 164.671875 459.433594 167.210938 459.085938 169.75 L 418.242188 169.75 C 418.242188 178.421875 424.609375 182.757812 437.34375 182.757812 C 443.554688 182.757812 449.765625 182.171875 455.976562 181 L 455.976562 193.304688 C 450.546875 194.476562 443.945312 195.0625 436.171875 195.0625 C 413.867188 195.0625 402.714844 184.574219 402.714844 163.597656 C 402.714844 143.558594 412.34375 133.539062 431.601562 133.539062" fill="#fff"/></g><g id="change3_7"><path d="M 473.910156 192.132812 L 473.910156 179.242188 C 480.746094 181.976562 488.636719 183.34375 497.582031 183.34375 C 504.261719 183.34375 507.601562 181.195312 507.601562 176.898438 C 507.601562 172.796875 505.355469 170.746094 500.863281 170.746094 L 489.730469 170.746094 C 477.230469 170.746094 470.980469 164.59375 470.980469 152.289062 C 470.980469 139.398438 480.101562 132.953125 498.34375 132.953125 C 506.078125 132.953125 513.363281 134.125 520.199219 136.46875 L 520.199219 149.359375 C 513.363281 146.625 505.941406 145.257812 497.933594 145.257812 C 489.535156 145.257812 485.335938 147.40625 485.335938 151.703125 C 485.335938 155.804688 487.777344 157.855469 492.660156 157.855469 L 502.621094 157.855469 C 516.292969 157.855469 523.128906 164.007812 523.128906 176.3125 C 523.128906 189.203125 514.417969 195.648438 496.996094 195.648438 C 488.441406 195.648438 480.746094 194.476562 473.910156 192.132812" fill="#fff"/></g><g id="change3_8"><path d="M 135.597656 214.980469 L 75.496094 154.878906 L 96.707031 133.664062 L 135.597656 172.554688 L 216.210938 91.945312 L 237.421875 113.15625 L 135.597656 214.980469" fill="#fff"/></g></g></svg>