<?xml version="1.0" encoding="UTF-8"?><svg xmlns="http://www.w3.org/2000/svg" xmlns:xlink="http://www.w3.org/1999/xlink" height="495.7" preserveAspectRatio="xMidYMid meet" version="1.0" viewBox="0.0 0.0 438.3 495.7" width="438.3" zoomAndPan="magnify"><defs><clipPath id="a"><path d="M 261 3 L 438.269531 3 L 438.269531 115 L 261 115 Z M 261 3"/></clipPath><clipPath id="b"><path d="M 0 287 L 353 287 L 353 495.679688 L 0 495.679688 Z M 0 287"/></clipPath><clipPath id="c"><path d="M 98 394 L 159 394 L 159 495.679688 L 98 495.679688 Z M 98 394"/></clipPath><clipPath id="d"><path d="M 57 394 L 100 394 L 100 495.679688 L 57 495.679688 Z M 57 394"/></clipPath><clipPath id="e"><path d="M 294 408 L 300 408 L 300 495.679688 L 294 495.679688 Z M 294 408"/></clipPath><clipPath id="f"><path d="M 261 0 L 438.269531 0 L 438.269531 112 L 261 112 Z M 261 0"/></clipPath></defs><g><g clip-path="url(#a)"><path d="M 352.339844 3.507812 C 304.882812 3.507812 266.410156 27.136719 266.410156 56.289062 C 266.410156 65.261719 270.058594 73.710938 276.488281 81.105469 C 267.371094 84.085938 261.15625 90 261.15625 96.8125 C 261.15625 106.621094 274.039062 114.574219 289.925781 114.574219 C 301.566406 114.574219 311.59375 110.304688 316.121094 104.164062 C 327.128906 107.3125 339.398438 109.070312 352.339844 109.070312 C 399.796875 109.070312 438.265625 85.441406 438.265625 56.289062 C 438.265625 27.136719 399.796875 3.507812 352.339844 3.507812" fill="#d9956d"/></g><g><path d="M 275.167969 120.953125 C 275.167969 124.476562 269.175781 127.332031 261.785156 127.332031 C 254.390625 127.332031 248.398438 124.476562 248.398438 120.953125 C 248.398438 117.429688 254.390625 114.574219 261.785156 114.574219 C 269.175781 114.574219 275.167969 117.429688 275.167969 120.953125" fill="#d9956d"/></g><g><path d="M 96.808594 74.550781 C 108.066406 56.789062 127.328125 48.285156 157.09375 48.785156 C 176.617188 49.113281 195.867188 58.039062 208.878906 71.296875 C 221.886719 84.554688 233.640625 101.816406 236.644531 119.328125 C 239.644531 136.839844 257.15625 163.605469 265.410156 169.609375 C 273.664062 175.609375 298.429688 186.867188 298.429688 186.867188 C 298.429688 186.867188 297.679688 203.628906 281.921875 210.632812 C 266.160156 217.636719 277.167969 217.136719 258.40625 228.144531 C 239.644531 239.148438 227.386719 238.898438 220.382812 244.402344 C 213.378906 249.90625 201.679688 264.660156 186.613281 264.664062 C 122.679688 264.6875 112.566406 275.671875 86.550781 265.414062 C 60.535156 255.160156 23.515625 249.40625 23.515625 249.40625 C 23.515625 249.40625 49.792969 192.078125 55.035156 174.609375 C 61.035156 154.597656 57.535156 143.59375 66.289062 116.824219 C 79.125 77.585938 96.808594 74.550781 96.808594 74.550781" fill="#495ca8"/></g><g><path d="M 72.757812 261.328125 C 72.558594 261.328125 72.394531 261.171875 72.382812 260.972656 C 71.886719 251.578125 76.230469 242.859375 80.429688 234.429688 C 84.800781 225.660156 88.652344 217.046875 87.753906 208.15625 C 87.734375 207.949219 87.882812 207.765625 88.089844 207.746094 C 88.292969 207.722656 88.480469 207.875 88.5 208.082031 C 89.417969 217.171875 85.527344 225.890625 81.101562 234.765625 C 76.945312 243.109375 72.648438 251.734375 73.132812 260.933594 C 73.140625 261.140625 72.984375 261.316406 72.777344 261.324219 C 72.769531 261.328125 72.761719 261.328125 72.757812 261.328125" fill="#282f39"/></g><g><path d="M 90.890625 267.480469 C 90.753906 267.480469 90.621094 267.40625 90.554688 267.273438 C 87.484375 261.144531 86.054688 254.285156 86.417969 247.441406 C 86.6875 242.378906 87.9375 237.339844 89.148438 232.464844 C 90.792969 225.835938 92.496094 218.980469 91.652344 212.175781 C 91.628906 211.96875 91.773438 211.78125 91.980469 211.757812 C 92.183594 211.730469 92.371094 211.878906 92.398438 212.082031 C 93.257812 219.027344 91.539062 225.949219 89.878906 232.644531 C 88.675781 237.484375 87.433594 242.492188 87.167969 247.480469 C 86.808594 254.195312 88.214844 260.925781 91.226562 266.9375 C 91.320312 267.125 91.242188 267.351562 91.058594 267.441406 C 91.003906 267.46875 90.949219 267.480469 90.890625 267.480469" fill="#282f39"/></g><g><path d="M 261.179688 226.792969 C 260.996094 226.792969 260.835938 226.660156 260.808594 226.472656 C 260.667969 225.539062 260.566406 224.585938 260.46875 223.664062 C 260.304688 222.164062 260.136719 220.613281 259.8125 219.125 C 258.363281 212.484375 253.859375 207.027344 249.5 201.746094 C 245.441406 196.828125 241.242188 191.746094 239.386719 185.628906 C 238.492188 182.695312 238.171875 179.601562 237.863281 176.605469 C 237.792969 175.925781 237.722656 175.246094 237.644531 174.566406 C 237.164062 170.324219 236.410156 166.070312 235.410156 161.917969 C 235.359375 161.71875 235.484375 161.515625 235.6875 161.464844 C 235.890625 161.417969 236.09375 161.542969 236.140625 161.742188 C 237.148438 165.925781 237.90625 170.210938 238.390625 174.480469 C 238.46875 175.164062 238.539062 175.847656 238.609375 176.53125 C 238.914062 179.488281 239.230469 182.546875 240.105469 185.410156 C 241.917969 191.382812 246.066406 196.410156 250.078125 201.269531 C 254.492188 206.617188 259.058594 212.148438 260.546875 218.96875 C 260.878906 220.492188 261.050781 222.066406 261.214844 223.585938 C 261.3125 224.496094 261.414062 225.441406 261.550781 226.363281 C 261.578125 226.566406 261.4375 226.757812 261.234375 226.789062 C 261.214844 226.792969 261.195312 226.792969 261.179688 226.792969" fill="#282f39"/></g><g><path d="M 275.078125 214.75 C 274.882812 214.75 274.71875 214.597656 274.707031 214.398438 C 274.472656 210.847656 272.390625 207.660156 270.84375 205.574219 C 267.976562 201.710938 264.535156 198.335938 260.617188 195.546875 C 258.65625 194.148438 256.550781 192.886719 254.511719 191.664062 C 251.625 189.933594 248.644531 188.148438 246.011719 185.949219 C 240.699219 181.519531 237.878906 175.78125 238.460938 170.601562 C 238.480469 170.394531 238.667969 170.246094 238.871094 170.269531 C 239.078125 170.292969 239.226562 170.480469 239.203125 170.6875 C 238.652344 175.613281 241.378906 181.105469 246.492188 185.375 C 249.082031 187.53125 252.035156 189.304688 254.894531 191.019531 C 256.945312 192.25 259.066406 193.523438 261.050781 194.933594 C 265.035156 197.769531 268.53125 201.199219 271.445312 205.125 C 273.050781 207.289062 275.210938 210.601562 275.453125 214.351562 C 275.46875 214.558594 275.3125 214.738281 275.105469 214.75 C 275.097656 214.75 275.089844 214.75 275.078125 214.75" fill="#282f39"/></g><g clip-path="url(#b)"><path d="M 73.792969 287.429688 C 73.792969 287.429688 15.257812 314.445312 10.257812 323.949219 C 5.253906 333.457031 0 495.054688 0 495.054688 L 352.214844 495.054688 C 352.214844 495.054688 349.210938 317.945312 310.4375 305.941406 C 301.117188 303.054688 265.410156 289.429688 265.410156 289.429688 L 73.792969 287.429688" fill="#f26f4c"/></g><g><path d="M 220.632812 267.917969 C 225.886719 275.421875 265.410156 292.183594 265.410156 292.183594 C 265.410156 292.183594 247.898438 328.453125 225.636719 337.960938 C 203.371094 347.464844 150.839844 347.964844 133.582031 341.960938 C 116.320312 335.960938 73.792969 290.179688 73.792969 290.179688 L 131.328125 267.917969 L 220.632812 267.917969" fill="#f7b6a3"/></g><g><path d="M 230.832031 323.847656 L 132.578125 335.707031 L 127.386719 211.988281 L 210.335938 198.433594 L 230.832031 323.847656" fill="#f7b6a3"/></g><g><path d="M 215.882812 228.144531 C 211.789062 241.0625 207.875 245.152344 195.867188 256.410156 C 183.476562 268.027344 130.078125 287.429688 130.078125 287.429688 L 128.394531 235.984375 L 215.882812 228.144531" fill="#493936"/></g><g><path d="M 159.414062 335.578125 C 161.097656 323.699219 162.597656 317.445312 159.347656 307.441406 C 156.09375 297.4375 156.84375 292.933594 156.84375 292.933594 L 159.019531 278.09375 C 159.019531 278.09375 165.601562 256.660156 164.097656 253.65625 C 162.597656 250.65625 151.59375 247.65625 150.339844 249.65625 C 149.089844 251.65625 146.839844 267.417969 146.839844 267.417969 L 131.328125 296.933594 L 158.847656 334.957031 L 159.414062 335.578125" fill="#d39285"/></g><g><path d="M 244.9375 153.492188 C 245.554688 167.015625 238.867188 178.308594 230.003906 178.710938 C 221.140625 179.117188 213.457031 168.480469 212.839844 154.953125 C 212.222656 141.429688 218.910156 130.140625 227.773438 129.734375 C 236.636719 129.332031 244.320312 139.96875 244.9375 153.492188" fill="#eda898"/></g><g><path d="M 228.238281 151.429688 C 239.605469 197.429688 219.464844 241.980469 183.25 250.925781 C 147.039062 259.875 108.46875 229.835938 97.101562 183.832031 C 85.734375 137.828125 105.875 93.28125 142.085938 84.332031 C 178.300781 75.386719 216.871094 105.425781 228.238281 151.429688" fill="#f7b6a3"/></g><g><path d="M 101.8125 192.371094 C 101.8125 192.371094 101.5625 179.613281 105.8125 170.609375 C 110.066406 161.601562 117.820312 148.59375 120.324219 136.085938 C 122.824219 123.578125 123.574219 120.828125 123.324219 115.324219 C 123.121094 110.898438 122.074219 111.070312 122.074219 111.070312 C 122.074219 111.070312 131.269531 115.007812 142.585938 118.078125 C 157.34375 122.078125 180.609375 121.578125 187.363281 122.328125 C 194.117188 123.078125 205.125 127.082031 211.378906 131.585938 C 217.632812 136.085938 226.636719 145.625 226.636719 145.625 L 216.632812 111.070312 L 161.097656 102.566406 L 101.8125 94.5625 L 88.304688 141.589844 C 88.304688 141.589844 92.804688 172.609375 92.804688 173.109375 C 92.804688 173.609375 101.8125 192.371094 101.8125 192.371094" fill="#eda898"/></g><g><path d="M 107.097656 186.660156 C 113.28125 198.703125 111.894531 211.753906 104 215.804688 C 96.109375 219.859375 84.695312 213.378906 78.515625 201.335938 C 72.332031 189.289062 73.71875 176.242188 81.609375 172.1875 C 89.503906 168.136719 100.914062 174.617188 107.097656 186.660156" fill="#f7b6a3"/></g><g><path d="M 106.0625 398.496094 C 106.0625 398.496094 118.570312 354.71875 116.570312 340.460938 C 114.570312 326.203125 99.808594 289.929688 100.8125 285.679688 C 101.8125 281.425781 102.1875 279.800781 102.1875 279.800781 L 142.710938 294.308594 C 142.710938 294.308594 143.335938 298.1875 149.089844 310.441406 C 154.84375 322.699219 159.097656 324.199219 159.597656 338.710938 C 160.097656 353.21875 148.839844 420.011719 148.839844 420.011719 L 106.0625 398.496094" fill="#eda898"/></g><g><path d="M 101.632812 284.320312 L 96.878906 250.300781 L 96.851562 250.097656 C 96.578125 248.152344 97.164062 246.265625 98.292969 244.839844 L 113.359375 226 L 113.648438 225.636719 C 114.195312 224.953125 114.894531 224.421875 115.640625 224.074219 L 124.585938 219.945312 C 127.730469 218.492188 131.457031 219.863281 132.910156 223.007812 C 134.28125 225.984375 133.105469 229.488281 130.316406 231.089844 L 121.753906 235.964844 L 124.035156 234.039062 L 110.082031 253.722656 L 111.496094 248.261719 L 116.25 282.28125 C 116.8125 286.316406 113.996094 290.046875 109.960938 290.609375 C 105.925781 291.175781 102.195312 288.359375 101.632812 284.320312" fill="#eda898"/></g><g><path d="M 104.3125 279.996094 L 135.101562 251.269531 L 135.1875 251.1875 C 137.246094 249.269531 140.207031 248.917969 142.597656 250.066406 L 165.859375 261.324219 L 166.25 261.515625 C 167.152344 261.949219 167.863281 262.613281 168.347656 263.410156 L 177.089844 277.652344 C 178.648438 280.1875 177.851562 283.511719 175.316406 285.070312 C 173.011719 286.484375 170.058594 285.957031 168.371094 283.949219 L 157.601562 271.171875 L 160.085938 273.257812 L 136.820312 262.003906 L 144.316406 260.800781 L 114.570312 290.605469 C 111.691406 293.492188 107.019531 293.496094 104.132812 290.617188 C 101.246094 287.738281 101.242188 283.066406 104.121094 280.179688 C 104.175781 280.125 104.257812 280.050781 104.3125 279.996094" fill="#eda898"/></g><g><path d="M 115.082031 282.546875 L 144.992188 261.988281 L 145.035156 261.960938 C 147.941406 259.964844 151.773438 260.335938 154.246094 262.644531 L 172.757812 279.90625 L 173.222656 280.335938 C 174.378906 281.414062 174.992188 282.878906 175.042969 284.34375 L 175.558594 299.796875 C 175.664062 303.058594 173.109375 305.789062 169.847656 305.894531 C 166.980469 305.992188 164.523438 304.019531 163.898438 301.324219 L 160.410156 286.261719 L 162.695312 290.699219 L 144.183594 273.4375 L 153.4375 274.09375 L 123.8125 295.0625 C 120.371094 297.496094 115.609375 296.683594 113.175781 293.242188 C 110.742188 289.804688 111.558594 285.042969 114.996094 282.605469 C 115.015625 282.59375 115.066406 282.558594 115.082031 282.546875" fill="#eda898"/></g><g><path d="M 126.542969 290.890625 L 146.558594 271.878906 C 148.183594 270.335938 150.382812 269.710938 152.445312 269.984375 L 168.703125 272.238281 L 169.273438 272.316406 C 170.996094 272.554688 172.453125 273.550781 173.339844 274.902344 L 179.765625 284.804688 C 181.597656 287.632812 180.792969 291.410156 177.96875 293.246094 C 175.449219 294.878906 172.179688 294.417969 170.199219 292.304688 L 162.117188 283.695312 L 166.75 286.359375 L 150.488281 284.109375 L 156.378906 282.21875 L 136.363281 301.230469 C 133.511719 303.941406 128.996094 303.824219 126.285156 300.96875 C 123.574219 298.113281 123.691406 293.601562 126.542969 290.890625" fill="#eda898"/></g><g><path d="M 109.855469 87.019531 C 114.847656 96.0625 119.941406 105.417969 121.011719 115.691406 C 123.78125 142.277344 99.257812 165.820312 101.332031 192.46875 C 91.386719 177.96875 84.207031 161.277344 82.601562 143.769531 C 80.996094 126.261719 85.300781 107.914062 96.175781 94.097656 C 99.886719 89.382812 105.324219 84.890625 111.230469 85.96875 L 109.855469 87.019531" fill="#495ca8"/></g><g><path d="M 108.136719 88.4375 C 111.394531 95.953125 114.9375 103.800781 121.476562 108.730469 C 127.371094 113.175781 134.914062 114.648438 142.167969 116.003906 C 151.285156 117.703125 160.441406 119.40625 169.707031 119.777344 C 175.328125 120 180.976562 119.730469 186.574219 120.3125 C 204.269531 122.140625 220.796875 132.976562 229.527344 148.476562 C 227.457031 128.539062 221.253906 109.257812 213.90625 90.609375 C 210.945312 83.085938 206.714844 77.0625 200.371094 72.050781 C 196.167969 68.726562 191.832031 65.136719 186.71875 63.539062 C 180.613281 61.628906 174.378906 59.964844 167.996094 59.503906 C 152.433594 58.378906 137.296875 64.457031 123.28125 71.316406 C 116.636719 74.570312 109.3125 79.0625 108.246094 86.386719 L 108.136719 88.4375" fill="#495ca8"/></g><g clip-path="url(#c)"><path d="M 135.605469 495.679688 C 135.546875 495.679688 135.480469 495.671875 135.421875 495.652344 C 135.089844 495.550781 134.90625 495.199219 135.011719 494.867188 L 156.964844 424.460938 L 98.65625 395.679688 C 98.347656 395.527344 98.222656 395.152344 98.375 394.84375 C 98.527344 394.53125 98.902344 394.40625 99.210938 394.558594 L 157.996094 423.574219 C 158.273438 423.710938 158.410156 424.027344 158.316406 424.324219 L 136.203125 495.242188 C 136.121094 495.507812 135.871094 495.679688 135.605469 495.679688" fill="#653b37"/></g><g clip-path="url(#d)"><path d="M 58.3125 495.679688 C 58.234375 495.679688 58.15625 495.664062 58.078125 495.632812 C 57.757812 495.503906 57.605469 495.140625 57.734375 494.820312 L 98.355469 394.882812 C 98.484375 394.5625 98.851562 394.410156 99.171875 394.539062 C 99.488281 394.671875 99.644531 395.035156 99.515625 395.355469 L 58.894531 495.289062 C 58.792969 495.53125 58.558594 495.679688 58.3125 495.679688" fill="#653b37"/></g><g clip-path="url(#e)"><path d="M 298.429688 495.679688 C 298.097656 495.679688 297.816406 495.414062 297.804688 495.078125 L 294.679688 408.648438 C 294.664062 408.304688 294.9375 408.015625 295.28125 408 C 295.621094 408.011719 295.914062 408.261719 295.929688 408.605469 L 299.054688 495.03125 C 299.066406 495.375 298.800781 495.667969 298.453125 495.679688 C 298.445312 495.679688 298.4375 495.679688 298.429688 495.679688" fill="#653b37"/></g><g><path d="M 81.257812 439.230469 C 80.894531 439.222656 80.625 438.933594 80.632812 438.589844 L 81.550781 405.859375 C 81.558594 405.511719 81.847656 405.257812 82.191406 405.25 C 82.539062 405.261719 82.808594 405.546875 82.800781 405.894531 L 81.882812 438.625 C 81.875 438.960938 81.597656 439.230469 81.257812 439.230469" fill="#653b37"/></g><g><path d="M 22.796875 235.335938 L 22.351562 234.730469 C 27.132812 231.1875 30.554688 226.273438 33.273438 221.9375 C 49.863281 195.441406 55.886719 163.316406 60.636719 132.683594 L 60.789062 131.710938 C 62.453125 120.953125 64.175781 109.832031 68.570312 99.726562 C 71.546875 92.867188 78.511719 80.640625 91.667969 75.769531 C 94.1875 74.839844 96.085938 74.820312 97.46875 75.71875 L 97.0625 76.347656 C 95.890625 75.589844 94.210938 75.632812 91.929688 76.476562 C 79.035156 81.246094 72.191406 93.277344 69.257812 100.023438 C 64.902344 110.042969 63.1875 121.117188 61.53125 131.824219 L 61.378906 132.796875 C 56.617188 163.507812 50.574219 195.71875 33.90625 222.335938 C 31.152344 226.730469 27.679688 231.71875 22.796875 235.335938" fill="#495ca8"/></g><g><path d="M 95.875 76.835938 C 95.75 71.164062 98.386719 66.199219 100.621094 63.03125 C 103.464844 59 107.128906 55.625 110.675781 52.359375 L 111.183594 52.910156 C 107.667969 56.148438 104.03125 59.496094 101.234375 63.464844 C 99.066406 66.539062 96.503906 71.351562 96.625 76.820312 L 95.875 76.835938" fill="#495ca8"/></g><g><path d="M 100.828125 191.242188 C 100.648438 191.242188 100.488281 191.109375 100.460938 190.925781 C 97.570312 173.734375 103.539062 156.566406 110.425781 140.574219 L 111.179688 138.835938 C 113.578125 133.292969 116.058594 127.566406 117.304688 121.597656 C 118.390625 116.398438 118.929688 108.785156 115.335938 102.066406 C 115.238281 101.886719 115.308594 101.65625 115.488281 101.5625 C 115.671875 101.460938 115.898438 101.53125 115.996094 101.714844 C 119.695312 108.632812 119.148438 116.429688 118.035156 121.75 C 116.777344 127.792969 114.28125 133.558594 111.867188 139.132812 L 111.113281 140.871094 C 104.277344 156.757812 98.339844 173.804688 101.199219 190.804688 C 101.234375 191.007812 101.09375 191.199219 100.890625 191.234375 C 100.871094 191.238281 100.847656 191.242188 100.828125 191.242188" fill="#282f39"/></g><g><path d="M 225.976562 131.066406 C 225.769531 131.066406 225.601562 130.898438 225.601562 130.695312 C 225.535156 123.957031 225.261719 116.832031 222.722656 110.300781 C 218.628906 99.757812 208.332031 90.980469 194.476562 86.214844 C 187.714844 83.890625 180.660156 82.558594 173.515625 82.253906 C 160.453125 81.699219 147.382812 84.628906 134.738281 87.460938 C 132.175781 88.035156 129.527344 88.628906 126.921875 89.183594 C 120.046875 90.644531 112.96875 91.464844 107.75 87.601562 C 107.582031 87.476562 107.546875 87.242188 107.671875 87.078125 C 107.796875 86.910156 108.03125 86.875 108.195312 87 C 113.175781 90.6875 120.0625 89.875 126.765625 88.449219 C 129.367188 87.894531 132.015625 87.300781 134.574219 86.726562 C 147.265625 83.882812 160.386719 80.941406 173.546875 81.503906 C 180.765625 81.8125 187.890625 83.15625 194.722656 85.507812 C 208.785156 90.34375 219.246094 99.28125 223.425781 110.027344 C 226.007812 116.675781 226.285156 123.878906 226.351562 130.6875 C 226.351562 130.894531 226.1875 131.0625 225.980469 131.066406 C 225.980469 131.066406 225.976562 131.066406 225.976562 131.066406" fill="#282f39"/></g><g><path d="M 201.058594 152.011719 C 201.847656 157.828125 199.328125 162.976562 195.425781 163.507812 C 191.523438 164.039062 187.71875 159.75 186.929688 153.933594 C 186.136719 148.113281 188.660156 142.96875 192.558594 142.4375 C 196.460938 141.90625 200.265625 146.195312 201.058594 152.011719" fill="#eda898"/></g><g><path d="M 201.558594 155.265625 C 202.347656 161.082031 199.828125 166.230469 195.925781 166.757812 C 192.023438 167.289062 188.21875 163.003906 187.429688 157.183594 C 186.636719 151.367188 189.160156 146.222656 193.058594 145.691406 C 196.960938 145.160156 200.765625 149.445312 201.558594 155.265625" fill="#493936"/></g><g><path d="M 151.777344 166.269531 C 152.566406 172.089844 150.046875 177.234375 146.144531 177.765625 C 142.242188 178.296875 138.4375 174.011719 137.648438 168.191406 C 136.855469 162.375 139.378906 157.226562 143.28125 156.695312 C 147.183594 156.167969 150.984375 160.453125 151.777344 166.269531" fill="#eda898"/></g><g><path d="M 99.625 190.632812 C 102.566406 197.316406 101.210938 204.371094 96.507812 206.4375 C 91.808594 208.507812 97.25 200.808594 94.308594 194.121094 C 91.363281 187.4375 81.148438 184.300781 85.847656 182.230469 C 90.546875 180.160156 96.679688 183.949219 99.625 190.632812" fill="#eda898"/></g><g><path d="M 153.027344 170.023438 C 153.820312 175.839844 151.296875 180.988281 147.394531 181.519531 C 143.496094 182.046875 139.691406 177.761719 138.898438 171.945312 C 138.109375 166.125 140.628906 160.980469 144.53125 160.449219 C 148.433594 159.917969 152.238281 164.203125 153.027344 170.023438" fill="#493936"/></g><g><path d="M 145.214844 143.71875 C 146.53125 145.035156 143.679688 150.023438 138.847656 154.859375 C 134.011719 159.695312 129.019531 162.546875 127.703125 161.226562 C 126.382812 159.910156 129.234375 154.921875 134.070312 150.085938 C 138.90625 145.25 143.894531 142.398438 145.214844 143.71875" fill="#eda898"/></g><g><path d="M 144.464844 142.464844 C 145.78125 143.785156 142.929688 148.773438 138.09375 153.609375 C 133.261719 158.445312 128.269531 161.296875 126.953125 159.976562 C 125.632812 158.660156 128.484375 153.667969 133.320312 148.835938 C 138.15625 143.996094 143.144531 141.148438 144.464844 142.464844" fill="#493936"/></g><g><path d="M 203.792969 136.359375 C 203.585938 138.214844 197.90625 139.089844 191.109375 138.316406 C 184.316406 137.546875 178.976562 135.417969 179.1875 133.5625 C 179.398438 131.710938 185.078125 130.835938 191.871094 131.605469 C 198.667969 132.378906 204.003906 134.507812 203.792969 136.359375" fill="#eda898"/></g><g><path d="M 203.792969 135.109375 C 203.585938 136.960938 197.90625 137.839844 191.109375 137.066406 C 184.316406 136.292969 178.976562 134.164062 179.1875 132.3125 C 179.398438 130.460938 185.078125 129.585938 191.871094 130.355469 C 198.667969 131.128906 204.003906 133.257812 203.792969 135.109375" fill="#493936"/></g><g><path d="M 168.164062 214.113281 C 162.03125 214.113281 154.96875 213.019531 147.289062 208.773438 C 146.867188 208.539062 146.714844 208.003906 146.949219 207.582031 C 147.183594 207.160156 147.714844 207.007812 148.136719 207.238281 C 159.910156 213.753906 169.875 212.582031 177.878906 211.640625 C 178.359375 211.582031 178.796875 211.925781 178.851562 212.40625 C 178.910156 212.886719 178.566406 213.320312 178.085938 213.378906 C 175.160156 213.722656 171.828125 214.113281 168.164062 214.113281" fill="#493936"/></g><g><path d="M 165.453125 224.285156 C 165.285156 224.285156 165.109375 224.28125 164.933594 224.269531 C 161.835938 224.121094 159.097656 222.621094 156.792969 219.816406 C 156.488281 219.445312 156.539062 218.894531 156.914062 218.585938 C 157.289062 218.277344 157.839844 218.332031 158.148438 218.707031 C 160.121094 221.113281 162.433594 222.394531 165.019531 222.523438 C 168.390625 222.6875 171.128906 220.875 172.109375 219.894531 C 172.453125 219.554688 173.007812 219.554688 173.347656 219.894531 C 173.691406 220.234375 173.691406 220.789062 173.347656 221.132812 C 172.148438 222.335938 169.183594 224.285156 165.453125 224.285156" fill="#493936"/></g><g><path d="M 150.339844 174.109375 C 150.339844 175.769531 149.390625 177.113281 148.214844 177.113281 C 147.039062 177.113281 146.089844 175.769531 146.089844 174.109375 C 146.089844 172.453125 147.039062 171.109375 148.214844 171.109375 C 149.390625 171.109375 150.339844 172.453125 150.339844 174.109375" fill="#fff"/></g><g><path d="M 198.621094 159.351562 C 198.621094 161.007812 197.667969 162.355469 196.492188 162.355469 C 195.320312 162.355469 194.367188 161.007812 194.367188 159.351562 C 194.367188 157.695312 195.320312 156.351562 196.492188 156.351562 C 197.667969 156.351562 198.621094 157.695312 198.621094 159.351562" fill="#fff"/></g><g><path d="M 178.40625 197.113281 C 178.144531 197.113281 177.886719 196.996094 177.714844 196.777344 C 177.414062 196.394531 177.484375 195.847656 177.863281 195.546875 C 179.695312 194.109375 181.351562 192.453125 182.789062 190.621094 C 183.128906 190.1875 183.464844 189.730469 183.53125 189.277344 C 183.601562 188.824219 183.425781 188.285156 183.253906 187.765625 L 173.335938 157.78125 C 173.183594 157.320312 173.433594 156.824219 173.890625 156.675781 C 174.347656 156.523438 174.847656 156.769531 174.996094 157.230469 L 184.914062 187.214844 C 185.128906 187.863281 185.394531 188.671875 185.265625 189.539062 C 185.132812 190.414062 184.628906 191.113281 184.167969 191.699219 C 182.644531 193.644531 180.886719 195.402344 178.945312 196.925781 C 178.785156 197.050781 178.59375 197.113281 178.40625 197.113281" fill="#493936"/></g><g><path d="M 133.484375 284.671875 C 133.390625 284.671875 133.292969 284.636719 133.21875 284.5625 C 133.074219 284.417969 133.070312 284.179688 133.21875 284.035156 C 134.5 282.738281 145.804688 271.347656 147.574219 270.644531 C 149.460938 269.894531 158.605469 270.429688 161.074219 270.800781 C 163.511719 271.171875 171.222656 272.660156 171.300781 272.675781 C 171.378906 272.691406 171.449219 272.730469 171.503906 272.789062 C 174.988281 276.523438 179.054688 283.019531 179.09375 283.082031 C 179.203125 283.257812 179.148438 283.488281 178.972656 283.601562 C 178.796875 283.710938 178.566406 283.65625 178.457031 283.480469 C 178.417969 283.417969 174.453125 277.085938 171.035156 273.390625 C 170.046875 273.199219 163.214844 271.886719 160.960938 271.542969 C 158.347656 271.148438 149.480469 270.691406 147.851562 271.339844 C 146.621094 271.828125 138.746094 279.515625 133.75 284.5625 C 133.679688 284.636719 133.582031 284.671875 133.484375 284.671875" fill="#b37454"/></g><g><path d="M 127.453125 273.671875 C 127.328125 273.671875 127.207031 273.609375 127.136719 273.496094 C 127.023438 273.320312 127.078125 273.089844 127.25 272.980469 C 127.402344 272.882812 142.28125 263.457031 144.746094 261.730469 C 147.363281 259.902344 151.292969 259.082031 154.484375 262.273438 C 157.445312 265.234375 164.117188 271.335938 164.183594 271.394531 C 164.335938 271.535156 164.347656 271.773438 164.207031 271.925781 C 164.066406 272.078125 163.828125 272.089844 163.675781 271.949219 C 163.609375 271.890625 156.925781 265.777344 153.953125 262.804688 C 151.089844 259.941406 147.542969 260.691406 145.179688 262.347656 C 142.699219 264.082031 127.804688 273.519531 127.652344 273.613281 C 127.589844 273.652344 127.519531 273.671875 127.453125 273.671875" fill="#b37454"/></g><g><path d="M 174.722656 294.566406 C 173.1875 294.566406 171.09375 294.046875 169.191406 291.800781 C 167.792969 290.144531 164.414062 285.539062 163.773438 284.660156 L 155.136719 283.914062 L 152.796875 286.136719 C 152.644531 286.277344 152.40625 286.273438 152.265625 286.125 C 152.121094 285.972656 152.128906 285.734375 152.277344 285.59375 L 154.742188 283.253906 C 154.820312 283.179688 154.925781 283.144531 155.03125 283.152344 L 164.007812 283.929688 C 164.113281 283.9375 164.214844 283.992188 164.277344 284.082031 C 164.316406 284.136719 168.265625 289.542969 169.765625 291.3125 C 172.632812 294.703125 175.9375 293.746094 176.570312 293.519531 C 177.902344 293.046875 178.820312 292.046875 178.832031 292.035156 C 178.96875 291.882812 179.207031 291.871094 179.359375 292.011719 C 179.515625 292.148438 179.523438 292.386719 179.386719 292.539062 C 179.34375 292.589844 178.328125 293.6875 176.824219 294.226562 C 176.535156 294.328125 175.757812 294.566406 174.722656 294.566406" fill="#b37454"/></g><g><path d="M 119.609375 240.660156 C 119.53125 240.660156 119.453125 240.636719 119.390625 240.589844 C 119.222656 240.46875 119.183594 240.234375 119.304688 240.066406 L 123.082031 234.816406 C 123.117188 234.761719 123.171875 234.71875 123.230469 234.691406 C 123.265625 234.675781 126.761719 233.0625 129.21875 231.285156 C 132.117188 229.191406 133.128906 227.648438 133.109375 226.902344 C 133.082031 225.824219 132.59375 223.617188 132.589844 223.597656 C 132.542969 223.394531 132.671875 223.195312 132.875 223.148438 C 133.078125 223.105469 133.277344 223.230469 133.320312 223.433594 C 133.34375 223.527344 133.828125 225.734375 133.859375 226.882812 C 133.902344 228.566406 131.246094 230.746094 129.660156 231.894531 C 127.335938 233.574219 124.214844 235.0625 123.632812 235.332031 L 119.914062 240.503906 C 119.839844 240.605469 119.722656 240.660156 119.609375 240.660156" fill="#b37454"/></g><g clip-path="url(#f)"><path d="M 352.339844 0.00390625 C 304.882812 0.00390625 266.410156 23.636719 266.410156 52.785156 C 266.410156 61.757812 270.058594 70.207031 276.488281 77.605469 C 267.371094 80.585938 261.15625 86.5 261.15625 93.3125 C 261.15625 103.121094 274.039062 111.070312 289.925781 111.070312 C 301.566406 111.070312 311.59375 106.800781 316.121094 100.660156 C 327.128906 103.808594 339.398438 105.570312 352.339844 105.570312 C 399.796875 105.570312 438.265625 81.9375 438.265625 52.785156 C 438.265625 23.636719 399.796875 0.00390625 352.339844 0.00390625" fill="#feeddd"/></g><g><path d="M 275.167969 117.449219 C 275.167969 120.972656 269.175781 123.828125 261.785156 123.828125 C 254.390625 123.828125 248.398438 120.972656 248.398438 117.449219 C 248.398438 113.929688 254.390625 111.070312 261.785156 111.070312 C 269.175781 111.070312 275.167969 113.929688 275.167969 117.449219" fill="#feeddd"/></g><g><path d="M 337.808594 81.5 C 337.777344 80.363281 337.960938 79.28125 338.355469 78.261719 C 338.75 77.242188 339.304688 76.351562 340.015625 75.582031 C 340.726562 74.8125 341.570312 74.195312 342.554688 73.730469 C 343.53125 73.261719 344.609375 73.015625 345.777344 72.980469 C 346.917969 72.949219 347.996094 73.140625 349.015625 73.550781 C 350.039062 73.964844 350.933594 74.535156 351.699219 75.261719 C 352.46875 75.988281 353.089844 76.851562 353.554688 77.847656 C 354.019531 78.84375 354.269531 79.910156 354.300781 81.050781 C 354.332031 82.21875 354.144531 83.308594 353.730469 84.3125 C 353.320312 85.316406 352.75 86.195312 352.019531 86.945312 C 351.292969 87.699219 350.429688 88.300781 349.433594 88.75 C 348.4375 89.199219 347.367188 89.441406 346.230469 89.472656 C 345.058594 89.503906 343.972656 89.324219 342.96875 88.929688 C 341.964844 88.53125 341.089844 87.976562 340.335938 87.265625 C 339.585938 86.554688 338.980469 85.710938 338.53125 84.726562 C 338.082031 83.746094 337.84375 82.671875 337.808594 81.5 Z M 342.234375 20.199219 C 340.605469 20.242188 339.101562 20.585938 337.722656 21.226562 C 336.339844 21.867188 335.140625 22.703125 334.128906 23.742188 C 333.113281 24.777344 332.332031 25.9375 331.78125 27.222656 C 331.230469 28.507812 330.972656 29.800781 331.007812 31.101562 C 331.035156 32.046875 331.183594 32.78125 331.460938 33.3125 C 331.734375 33.839844 332.054688 34.238281 332.421875 34.503906 C 332.785156 34.773438 333.140625 34.941406 333.484375 35.011719 C 333.828125 35.085938 334.082031 35.117188 334.242188 35.113281 C 334.992188 35.09375 335.605469 34.953125 336.089844 34.699219 C 336.570312 34.441406 336.992188 34.167969 337.359375 33.882812 C 337.726562 33.597656 338.078125 33.324219 338.410156 33.070312 C 338.746094 32.816406 339.15625 32.683594 339.644531 32.671875 C 340.003906 32.660156 340.386719 32.726562 340.800781 32.859375 C 341.210938 32.996094 341.597656 33.226562 341.964844 33.558594 C 342.332031 33.890625 342.636719 34.339844 342.882812 34.902344 C 343.125 35.464844 343.257812 36.152344 343.277344 36.964844 C 343.308594 37.976562 343.078125 38.886719 342.597656 39.695312 C 342.113281 40.507812 341.480469 41.207031 340.699219 41.796875 C 339.921875 42.390625 339.035156 42.84375 338.054688 43.164062 C 337.070312 43.484375 336.105469 43.65625 335.160156 43.683594 C 332.234375 43.761719 329.890625 42.875 328.132812 41.019531 C 326.371094 39.164062 325.441406 36.476562 325.347656 32.964844 C 325.269531 30.136719 325.796875 27.65625 326.925781 25.523438 C 328.054688 23.394531 329.585938 21.613281 331.515625 20.175781 C 333.445312 18.738281 335.671875 17.652344 338.1875 16.914062 C 340.707031 16.179688 343.316406 15.773438 346.015625 15.699219 C 349.140625 15.613281 352.019531 15.960938 354.664062 16.734375 C 357.304688 17.507812 359.597656 18.640625 361.542969 20.132812 C 363.488281 21.625 365.027344 23.449219 366.160156 25.597656 C 367.292969 27.746094 367.894531 30.140625 367.96875 32.773438 C 368.046875 35.671875 367.628906 38.203125 366.710938 40.378906 C 365.796875 42.550781 364.601562 44.511719 363.136719 46.261719 C 361.671875 48.011719 360.0625 49.617188 358.3125 51.082031 C 356.5625 52.546875 354.886719 54.039062 353.285156 55.5625 C 351.683594 57.089844 350.277344 58.707031 349.074219 60.414062 C 347.867188 62.125 347.097656 64.074219 346.765625 66.265625 L 342.863281 66.371094 C 342.808594 64.355469 343.015625 62.460938 343.488281 60.691406 C 343.960938 58.921875 344.558594 57.203125 345.277344 55.539062 C 345.996094 53.875 346.78125 52.21875 347.632812 50.566406 C 348.480469 48.917969 349.265625 47.1875 349.980469 45.375 C 350.695312 43.566406 351.285156 41.636719 351.75 39.589844 C 352.214844 37.542969 352.414062 35.285156 352.34375 32.8125 C 352.292969 30.894531 352.058594 29.148438 351.640625 27.582031 C 351.222656 26.015625 350.597656 24.671875 349.773438 23.554688 C 348.941406 22.441406 347.902344 21.589844 346.648438 21.003906 C 345.394531 20.421875 343.925781 20.152344 342.234375 20.199219" fill="#f26f4c"/></g></g></svg>