<?xml version="1.0" encoding="UTF-8" standalone="no"?><svg xmlns="http://www.w3.org/2000/svg" xmlns:xlink="http://www.w3.org/1999/xlink" data-name="Layer 1" fill="#008037" height="30.5" preserveAspectRatio="xMidYMid meet" version="1" viewBox="3.0 0.9 26.0 30.5" width="26" zoomAndPan="magnify"><g id="change1_1"><path d="M15.758,31.339a1.016,1.016,0,0,0,.484,0A16.817,16.817,0,0,0,29,15V7a1,1,0,0,0-1-1A17.653,17.653,0,0,1,16.707,1.293a1,1,0,0,0-1.414,0C10.66,5.926,4.064,6,4,6A1,1,0,0,0,3,7v8A16.817,16.817,0,0,0,15.758,31.339ZM5,7.946A19.562,19.562,0,0,0,16,3.374,19.562,19.562,0,0,0,27,7.946V15A14.821,14.821,0,0,1,16,29.336,14.821,14.821,0,0,1,5,15Z" fill="inherit"/></g><g id="change1_2"><path d="M14.293,19.707a1.013,1.013,0,0,0,1.414,0l6-6a1,1,0,0,0-1.414-1.414L15,17.586l-2.293-2.293a1,1,0,0,0-1.414,1.414Z" fill="inherit"/></g></svg>