<?xml version="1.0" encoding="UTF-8"?><svg xmlns="http://www.w3.org/2000/svg" xmlns:xlink="http://www.w3.org/1999/xlink" height="90.0" preserveAspectRatio="xMidYMid meet" version="1.0" viewBox="-0.1 0.0 446.5 237.0" width="90.5" zoomAndPan="magnify"><defs><clipPath id="a"><path d="M 73 199 L 191 199 L 191 236.980469 L 73 236.980469 Z M 73 199"/></clipPath><clipPath id="b"><path d="M 23 25 L 446.421875 25 L 446.421875 209 L 23 209 Z M 23 25"/></clipPath></defs><g><g clip-path="url(#a)" id="change1_1"><path d="M 73.589844 208.488281 L 189.195312 236.941406 C 190.144531 237.175781 190.976562 236.265625 190.65625 235.339844 L 178.265625 199.601562 L 73.589844 208.488281" fill="#d4181f"/></g><g clip-path="url(#b)" id="change2_7"><path d="M 234.386719 44.03125 L 31.464844 62.398438 C 26.085938 62.886719 22.574219 68.273438 24.296875 73.394531 L 68.035156 203.140625 C 69.269531 206.804688 72.855469 209.144531 76.707031 208.792969 L 419.089844 177.800781 C 422.941406 177.453125 426.050781 174.507812 426.605469 170.679688 L 446.332031 35.1875 C 447.109375 29.84375 442.6875 25.175781 437.308594 25.660156 L 234.386719 44.03125" fill="#ff1d25"/></g><g id="change2_1"><path d="M 15.488281 106.441406 C 14.703125 106.4375 13.785156 106.417969 12.835938 106.199219 C 11.804688 105.960938 10.898438 105.5 10.136719 104.835938 C 9.472656 104.253906 8.910156 103.523438 8.46875 102.664062 C 7.730469 101.230469 7.300781 99.507812 7.222656 97.6875 C 7.148438 95.882812 7.453125 94.125 8.097656 92.601562 C 8.695312 91.199219 9.644531 89.886719 10.84375 88.804688 C 11.402344 88.296875 12.023438 87.835938 12.6875 87.429688 C 13.007812 87.230469 13.34375 87.046875 13.679688 86.878906 C 13.8125 86.8125 13.949219 86.746094 14.082031 86.683594 C 14.246094 86.605469 14.402344 86.535156 14.527344 86.464844 C 15.367188 86.003906 16.167969 85.265625 16.96875 84.21875 C 17.625 83.359375 18.222656 82.347656 18.746094 81.214844 C 19.226562 80.164062 19.648438 79.019531 20.035156 77.703125 C 20.359375 76.597656 20.65625 75.378906 20.941406 73.976562 C 21.234375 72.527344 21.472656 71.195312 21.660156 69.90625 C 21.875 68.433594 22.054688 66.859375 22.207031 65.085938 C 22.355469 63.328125 22.464844 61.558594 22.539062 60.210938 C 22.578125 59.523438 22.617188 58.835938 22.652344 58.148438 C 22.707031 57.175781 22.757812 56.203125 22.816406 55.234375 L 22.828125 55.066406 C 22.917969 53.554688 23.011719 51.988281 23.175781 50.433594 C 23.328125 49.03125 23.550781 47.617188 23.835938 46.222656 C 24.128906 44.808594 24.492188 43.398438 24.921875 42.03125 C 25.351562 40.640625 25.855469 39.269531 26.417969 37.957031 C 26.992188 36.609375 27.636719 35.300781 28.335938 34.058594 C 29.050781 32.78125 29.839844 31.550781 30.671875 30.40625 C 31.535156 29.222656 32.464844 28.101562 33.441406 27.078125 C 34.472656 25.992188 35.59375 24.96875 36.777344 24.039062 C 37.949219 23.121094 39.207031 22.269531 40.515625 21.507812 C 41.800781 20.761719 43.160156 20.089844 44.550781 19.515625 C 45.933594 18.941406 47.371094 18.453125 48.828125 18.058594 C 49.3125 17.925781 49.800781 17.792969 50.320312 17.695312 L 50.285156 16.425781 C 50.230469 16.34375 50.179688 16.265625 50.125 16.183594 C 49.886719 15.804688 49.671875 15.402344 49.492188 14.992188 C 49.132812 14.175781 48.894531 13.304688 48.785156 12.402344 C 48.601562 10.859375 48.800781 9.292969 49.359375 7.867188 C 49.882812 6.550781 50.714844 5.347656 51.769531 4.390625 C 52.835938 3.429688 54.128906 2.71875 55.507812 2.335938 C 56.308594 2.117188 57.140625 2.003906 57.976562 2.003906 C 58.636719 2.003906 59.296875 2.074219 59.941406 2.214844 C 61.339844 2.519531 62.671875 3.15625 63.789062 4.058594 C 64.902344 4.957031 65.804688 6.117188 66.398438 7.410156 C 67.050781 8.835938 67.332031 10.402344 67.210938 11.945312 C 67.136719 12.847656 66.925781 13.75 66.582031 14.632812 C 66.425781 15.03125 66.242188 15.429688 66.03125 15.8125 C 66.007812 15.851562 65.984375 15.894531 65.960938 15.933594 L 66 17.25 C 66.617188 17.324219 67.1875 17.453125 67.742188 17.578125 L 67.910156 17.613281 C 69.378906 17.941406 70.832031 18.363281 72.230469 18.871094 C 73.648438 19.386719 75.035156 19.996094 76.351562 20.683594 C 77.695312 21.386719 78.992188 22.1875 80.207031 23.058594 C 81.414062 23.925781 82.574219 24.890625 83.648438 25.925781 C 84.667969 26.90625 85.648438 27.984375 86.5625 29.125 C 87.449219 30.230469 88.292969 31.421875 89.066406 32.664062 C 89.824219 33.871094 90.53125 35.152344 91.164062 36.46875 C 91.789062 37.761719 92.359375 39.109375 92.859375 40.480469 C 93.351562 41.824219 93.78125 43.210938 94.136719 44.597656 C 94.492188 45.972656 94.78125 47.375 95 48.765625 C 95.25 50.363281 95.433594 51.972656 95.613281 53.53125 L 95.625 53.625 C 95.71875 54.4375 95.808594 55.253906 95.898438 56.066406 C 95.992188 56.890625 96.085938 57.714844 96.179688 58.539062 C 96.40625 60.515625 96.601562 62.019531 96.808594 63.414062 C 97.066406 65.160156 97.339844 66.714844 97.648438 68.164062 C 97.917969 69.445312 98.238281 70.769531 98.597656 72.101562 C 98.96875 73.484375 99.347656 74.683594 99.746094 75.773438 C 100.21875 77.046875 100.714844 78.152344 101.269531 79.152344 C 101.867188 80.238281 102.539062 81.195312 103.257812 81.992188 C 104.132812 82.96875 104.992188 83.617188 105.878906 83.984375 C 106.554688 84.265625 107.21875 84.546875 107.890625 84.9375 C 108.558594 85.324219 109.1875 85.773438 109.757812 86.265625 C 110.945312 87.289062 111.902344 88.550781 112.523438 89.90625 L 112.601562 90.089844 C 113.21875 91.511719 113.539062 93.070312 113.554688 94.730469 C 113.5625 95.59375 113.484375 96.453125 113.324219 97.292969 C 113.144531 98.226562 112.898438 99.035156 112.5625 99.765625 C 112.160156 100.648438 111.632812 101.402344 110.992188 102.015625 C 110.261719 102.710938 109.371094 103.207031 108.351562 103.492188 C 107.433594 103.75 106.554688 103.816406 105.730469 103.863281 C 105.050781 103.902344 104.371094 103.9375 103.691406 103.972656 L 103.210938 103.996094 C 101.273438 104.097656 99.652344 104.171875 98.113281 104.238281 C 96.425781 104.308594 94.707031 104.371094 93.007812 104.417969 C 91.304688 104.46875 89.605469 104.515625 87.90625 104.558594 L 82.84375 104.699219 C 81.140625 104.746094 79.441406 104.796875 77.742188 104.84375 L 43.484375 105.820312 C 41.785156 105.867188 40.082031 105.917969 38.382812 105.964844 L 33.304688 106.117188 C 31.609375 106.164062 29.914062 106.214844 28.21875 106.265625 C 26.535156 106.3125 24.808594 106.351562 23.09375 106.378906 C 21.519531 106.402344 19.855469 106.417969 18.007812 106.429688 L 17.511719 106.433594 C 16.914062 106.4375 16.316406 106.441406 15.71875 106.441406 L 15.488281 106.441406" fill="#ff1d25"/></g><g id="change3_1"><path d="M 57.976562 0.00390625 C 56.960938 0.00390625 55.949219 0.140625 54.976562 0.410156 C 53.296875 0.871094 51.722656 1.734375 50.425781 2.90625 C 49.144531 4.066406 48.132812 5.53125 47.5 7.136719 C 46.816406 8.867188 46.574219 10.769531 46.800781 12.640625 C 46.933594 13.738281 47.222656 14.800781 47.660156 15.796875 C 47.726562 15.949219 47.796875 16.097656 47.871094 16.246094 C 46.480469 16.640625 45.105469 17.117188 43.785156 17.664062 C 42.3125 18.277344 40.871094 18.988281 39.511719 19.777344 C 38.121094 20.585938 36.785156 21.488281 35.539062 22.46875 C 34.28125 23.453125 33.085938 24.542969 31.988281 25.699219 C 30.957031 26.789062 29.96875 27.976562 29.054688 29.226562 C 28.175781 30.4375 27.34375 31.730469 26.589844 33.078125 C 25.855469 34.382812 25.179688 35.761719 24.578125 37.171875 C 23.988281 38.546875 23.460938 39.984375 23.011719 41.433594 C 22.5625 42.867188 22.183594 44.34375 21.878906 45.816406 C 21.578125 47.273438 21.34375 48.753906 21.1875 50.222656 C 21.015625 51.820312 20.921875 53.40625 20.828125 54.941406 L 20.820312 55.113281 C 20.761719 56.09375 20.707031 57.082031 20.65625 58.039062 C 20.617188 58.726562 20.582031 59.410156 20.542969 60.097656 C 20.464844 61.429688 20.359375 63.183594 20.210938 64.914062 C 20.0625 66.648438 19.890625 68.183594 19.679688 69.613281 C 19.496094 70.867188 19.269531 72.164062 18.980469 73.578125 C 18.707031 74.925781 18.421875 76.089844 18.113281 77.140625 C 17.757812 78.359375 17.367188 79.417969 16.925781 80.375 C 16.464844 81.378906 15.945312 82.261719 15.378906 83.003906 C 14.75 83.828125 14.15625 84.386719 13.566406 84.710938 C 13.496094 84.75 13.363281 84.8125 13.234375 84.871094 C 13.101562 84.933594 12.949219 85.007812 12.785156 85.089844 C 12.394531 85.28125 12.011719 85.496094 11.640625 85.722656 C 10.875 86.191406 10.15625 86.730469 9.5 87.320312 C 8.085938 88.59375 6.964844 90.152344 6.257812 91.820312 C 5.496094 93.613281 5.136719 95.671875 5.226562 97.769531 C 5.3125 99.878906 5.820312 101.886719 6.6875 103.578125 C 7.246094 104.664062 7.964844 105.59375 8.820312 106.34375 C 9.832031 107.226562 11.03125 107.832031 12.382812 108.148438 C 13.480469 108.402344 14.523438 108.4375 15.484375 108.441406 L 15.722656 108.441406 C 16.324219 108.441406 16.929688 108.4375 17.519531 108.433594 L 18.023438 108.429688 C 19.886719 108.417969 21.558594 108.402344 23.125 108.378906 C 24.84375 108.351562 26.578125 108.3125 28.277344 108.265625 C 29.972656 108.214844 31.667969 108.164062 33.363281 108.117188 L 34.308594 108.089844 C 35.6875 108.046875 37.066406 108.007812 38.441406 107.964844 C 40.140625 107.914062 41.839844 107.867188 43.539062 107.820312 L 48.625 107.675781 L 53.714844 107.53125 L 57.101562 107.433594 L 58.800781 107.386719 L 60.304688 107.34375 L 62.523438 107.277344 L 63.535156 107.25 L 67.625 107.132812 L 72.710938 106.988281 L 76.101562 106.890625 L 77.796875 106.84375 C 79.496094 106.796875 81.199219 106.746094 82.898438 106.699219 C 84.050781 106.667969 85.203125 106.636719 86.355469 106.605469 L 87.960938 106.558594 C 89.660156 106.515625 91.359375 106.46875 93.0625 106.417969 C 94.773438 106.371094 96.5 106.308594 98.199219 106.238281 C 99.730469 106.171875 101.355469 106.09375 103.3125 105.992188 L 103.753906 105.972656 C 104.4375 105.9375 105.144531 105.898438 105.84375 105.859375 C 106.738281 105.808594 107.78125 105.730469 108.886719 105.421875 C 110.230469 105.046875 111.402344 104.386719 112.371094 103.464844 C 113.199219 102.675781 113.878906 101.710938 114.386719 100.59375 C 114.785156 99.71875 115.078125 98.761719 115.289062 97.671875 C 115.476562 96.699219 115.5625 95.707031 115.554688 94.710938 C 115.535156 92.78125 115.160156 90.957031 114.4375 89.289062 L 114.425781 89.269531 L 114.421875 89.257812 L 114.417969 89.25 L 114.417969 89.242188 L 114.414062 89.238281 L 114.414062 89.234375 L 114.375 89.148438 C 114.375 89.148438 114.371094 89.148438 114.371094 89.144531 L 114.355469 89.101562 L 114.355469 89.105469 C 113.613281 87.472656 112.476562 85.972656 111.066406 84.75 C 110.402344 84.179688 109.671875 83.65625 108.894531 83.207031 C 108.117188 82.753906 107.355469 82.429688 106.640625 82.136719 C 106.046875 81.890625 105.40625 81.390625 104.746094 80.65625 C 104.128906 79.96875 103.546875 79.136719 103.019531 78.183594 C 102.515625 77.273438 102.058594 76.257812 101.625 75.082031 C 101.246094 74.050781 100.886719 72.902344 100.53125 71.582031 C 100.179688 70.28125 99.867188 68.992188 99.605469 67.75 C 99.304688 66.339844 99.039062 64.824219 98.785156 63.121094 C 98.585938 61.746094 98.394531 60.265625 98.167969 58.3125 C 98.074219 57.492188 97.980469 56.65625 97.890625 55.84375 C 97.800781 55.042969 97.707031 54.214844 97.613281 53.398438 L 97.601562 53.304688 C 97.417969 51.726562 97.230469 50.09375 96.976562 48.457031 C 96.75 47.003906 96.445312 45.535156 96.074219 44.097656 C 95.699219 42.644531 95.253906 41.199219 94.738281 39.796875 C 94.21875 38.363281 93.621094 36.949219 92.96875 35.597656 C 92.296875 34.21875 91.558594 32.875 90.765625 31.605469 C 89.949219 30.296875 89.058594 29.039062 88.121094 27.871094 C 87.15625 26.664062 86.117188 25.523438 85.035156 24.484375 C 83.890625 23.382812 82.660156 22.355469 81.375 21.433594 C 80.082031 20.507812 78.707031 19.65625 77.277344 18.910156 C 75.882812 18.183594 74.414062 17.535156 72.914062 16.992188 C 71.433594 16.453125 69.898438 16.007812 68.347656 15.660156 L 68.324219 15.65625 C 68.367188 15.558594 68.40625 15.460938 68.445312 15.359375 C 68.863281 14.296875 69.117188 13.199219 69.203125 12.101562 C 69.351562 10.222656 69.011719 8.308594 68.21875 6.578125 C 67.496094 5.003906 66.398438 3.59375 65.046875 2.503906 C 63.6875 1.402344 62.066406 0.628906 60.363281 0.257812 C 59.582031 0.0898438 58.78125 0.00390625 57.976562 0.00390625 Z M 110.765625 90.878906 C 110.765625 90.882812 110.765625 90.882812 110.765625 90.886719 C 110.765625 90.882812 110.765625 90.882812 110.765625 90.878906 M 110.746094 90.84375 C 110.75 90.84375 110.75 90.847656 110.753906 90.851562 C 110.75 90.847656 110.75 90.847656 110.75 90.847656 C 110.75 90.84375 110.75 90.84375 110.746094 90.84375 M 110.691406 90.710938 C 110.710938 90.753906 110.726562 90.796875 110.746094 90.84375 C 110.730469 90.796875 110.710938 90.753906 110.691406 90.710938 M 57.976562 4.003906 C 58.492188 4.003906 59.011719 4.058594 59.519531 4.171875 C 60.617188 4.410156 61.65625 4.90625 62.535156 5.617188 C 63.40625 6.320312 64.113281 7.226562 64.578125 8.246094 C 65.085938 9.347656 65.308594 10.578125 65.214844 11.785156 C 65.15625 12.511719 64.984375 13.226562 64.71875 13.902344 C 64.59375 14.226562 64.441406 14.546875 64.273438 14.851562 C 64.191406 15.007812 64.101562 15.15625 64.011719 15.304688 C 63.984375 15.347656 63.953125 15.378906 63.945312 15.425781 C 63.9375 15.5 63.953125 15.585938 63.953125 15.65625 C 63.957031 15.800781 63.960938 15.945312 63.964844 16.085938 C 63.976562 16.484375 63.988281 16.882812 64 17.277344 C 64.011719 17.667969 64.023438 18.054688 64.03125 18.445312 C 64.035156 18.578125 64.039062 18.714844 64.042969 18.851562 C 64.046875 18.894531 64.027344 19.015625 64.050781 19.050781 C 64.074219 19.089844 64.292969 19.085938 64.351562 19.089844 C 64.542969 19.109375 64.730469 19.128906 64.917969 19.144531 C 65.179688 19.171875 65.441406 19.199219 65.699219 19.226562 C 66.296875 19.296875 66.890625 19.4375 67.476562 19.566406 C 68.859375 19.875 70.21875 20.269531 71.550781 20.753906 C 72.875 21.234375 74.171875 21.804688 75.421875 22.457031 C 76.679688 23.113281 77.890625 23.855469 79.039062 24.683594 C 80.175781 25.5 81.253906 26.394531 82.261719 27.367188 C 83.238281 28.308594 84.152344 29.316406 85 30.375 C 85.855469 31.441406 86.644531 32.5625 87.371094 33.726562 C 88.101562 34.890625 88.765625 36.101562 89.363281 37.339844 C 89.96875 38.585938 90.507812 39.863281 90.980469 41.164062 C 91.449219 42.453125 91.855469 43.765625 92.199219 45.097656 C 92.539062 46.410156 92.8125 47.738281 93.023438 49.074219 C 93.269531 50.660156 93.453125 52.261719 93.636719 53.855469 C 93.828125 55.492188 94.003906 57.132812 94.191406 58.769531 C 94.382812 60.417969 94.585938 62.066406 94.828125 63.707031 C 95.070312 65.339844 95.347656 66.96875 95.691406 68.582031 C 95.976562 69.9375 96.304688 71.285156 96.664062 72.621094 C 97.015625 73.917969 97.40625 75.203125 97.871094 76.464844 C 98.335938 77.71875 98.871094 78.949219 99.519531 80.121094 C 100.152344 81.265625 100.894531 82.355469 101.769531 83.332031 C 102.710938 84.375 103.808594 85.292969 105.113281 85.835938 C 105.71875 86.085938 106.316406 86.335938 106.882812 86.667969 C 107.4375 86.988281 107.964844 87.359375 108.449219 87.777344 C 109.425781 88.621094 110.230469 89.664062 110.75 90.847656 C 110.75 90.847656 110.75 90.847656 110.753906 90.851562 C 110.757812 90.859375 110.757812 90.867188 110.765625 90.878906 C 110.757812 90.867188 110.757812 90.859375 110.753906 90.851562 C 111.289062 92.074219 111.539062 93.417969 111.554688 94.75 C 111.558594 95.476562 111.496094 96.203125 111.359375 96.914062 C 111.226562 97.605469 111.035156 98.296875 110.742188 98.933594 C 110.46875 99.539062 110.09375 100.105469 109.609375 100.566406 C 109.101562 101.050781 108.484375 101.378906 107.8125 101.566406 C 107.097656 101.765625 106.355469 101.824219 105.617188 101.863281 C 104.78125 101.914062 103.945312 101.953125 103.109375 101.996094 C 101.414062 102.085938 99.722656 102.167969 98.027344 102.238281 C 96.335938 102.3125 94.644531 102.371094 92.949219 102.417969 C 91.25 102.46875 89.550781 102.515625 87.847656 102.558594 C 86.160156 102.605469 84.472656 102.652344 82.785156 102.699219 C 81.085938 102.746094 79.386719 102.796875 77.683594 102.84375 C 75.988281 102.890625 74.292969 102.941406 72.597656 102.988281 C 70.902344 103.035156 69.207031 103.085938 67.511719 103.132812 C 65.808594 103.183594 64.109375 103.230469 62.40625 103.277344 C 61.167969 103.3125 59.925781 103.351562 58.683594 103.386719 C 56.988281 103.433594 55.292969 103.480469 53.597656 103.53125 C 51.902344 103.578125 50.207031 103.625 48.511719 103.675781 C 46.816406 103.722656 45.121094 103.769531 43.425781 103.820312 C 41.726562 103.867188 40.027344 103.917969 38.324219 103.96875 C 36.632812 104.015625 34.9375 104.066406 33.242188 104.117188 C 31.550781 104.164062 29.855469 104.214844 28.164062 104.265625 C 26.464844 104.3125 24.765625 104.351562 23.0625 104.378906 C 21.375 104.402344 19.6875 104.417969 17.996094 104.429688 C 17.238281 104.433594 16.480469 104.441406 15.722656 104.441406 C 15.644531 104.441406 15.570312 104.441406 15.492188 104.441406 C 14.753906 104.4375 14.007812 104.417969 13.289062 104.25 C 12.609375 104.089844 11.980469 103.789062 11.453125 103.328125 C 10.949219 102.890625 10.550781 102.339844 10.246094 101.746094 C 9.59375 100.484375 9.28125 99.019531 9.222656 97.601562 C 9.164062 96.171875 9.378906 94.710938 9.941406 93.386719 C 10.445312 92.199219 11.226562 91.152344 12.183594 90.289062 C 12.660156 89.859375 13.183594 89.472656 13.734375 89.132812 C 14.007812 88.964844 14.289062 88.808594 14.574219 88.664062 C 14.878906 88.515625 15.195312 88.382812 15.492188 88.21875 C 16.71875 87.542969 17.71875 86.535156 18.558594 85.429688 C 19.355469 84.386719 20.015625 83.242188 20.5625 82.050781 C 21.125 80.828125 21.574219 79.558594 21.953125 78.269531 C 22.332031 76.984375 22.636719 75.683594 22.902344 74.375 C 23.183594 72.988281 23.433594 71.59375 23.640625 70.195312 C 23.878906 68.554688 24.058594 66.90625 24.199219 65.257812 C 24.339844 63.613281 24.441406 61.972656 24.535156 60.324219 C 24.632812 58.667969 24.714844 57.011719 24.8125 55.351562 C 24.90625 53.785156 24.996094 52.210938 25.164062 50.648438 C 25.308594 49.300781 25.523438 47.957031 25.796875 46.628906 C 26.074219 45.277344 26.421875 43.941406 26.832031 42.625 C 27.242188 41.308594 27.714844 40.011719 28.257812 38.742188 C 28.796875 37.476562 29.40625 36.238281 30.078125 35.035156 C 30.75 33.84375 31.484375 32.6875 32.289062 31.585938 C 33.089844 30.488281 33.957031 29.4375 34.890625 28.453125 C 35.859375 27.433594 36.90625 26.484375 38.011719 25.613281 C 39.125 24.742188 40.296875 23.949219 41.519531 23.238281 C 42.742188 22.527344 44.011719 21.902344 45.316406 21.363281 C 46.628906 20.816406 47.976562 20.359375 49.351562 19.988281 C 49.851562 19.851562 50.355469 19.714844 50.867188 19.628906 C 51.132812 19.582031 51.402344 19.539062 51.667969 19.496094 C 51.855469 19.46875 52.042969 19.441406 52.230469 19.414062 C 52.285156 19.40625 52.355469 19.421875 52.371094 19.371094 C 52.390625 19.3125 52.367188 19.203125 52.363281 19.140625 C 52.359375 18.996094 52.355469 18.855469 52.351562 18.710938 C 52.339844 18.316406 52.328125 17.917969 52.320312 17.519531 C 52.308594 17.132812 52.296875 16.742188 52.285156 16.355469 C 52.28125 16.21875 52.277344 16.078125 52.273438 15.941406 C 52.273438 15.882812 52.285156 15.804688 52.269531 15.746094 C 52.265625 15.730469 52.269531 15.75 52.257812 15.726562 C 52.222656 15.65625 52.152344 15.589844 52.101562 15.527344 C 52 15.390625 51.90625 15.25 51.816406 15.109375 C 51.628906 14.8125 51.464844 14.507812 51.324219 14.1875 C 51.039062 13.542969 50.855469 12.859375 50.773438 12.164062 C 50.628906 10.960938 50.777344 9.730469 51.222656 8.601562 C 51.632812 7.5625 52.28125 6.625 53.109375 5.875 C 53.945312 5.121094 54.953125 4.566406 56.039062 4.265625 C 56.667969 4.09375 57.324219 4.003906 57.976562 4.003906" fill="#fff"/></g><g id="change2_2"><path d="M 60.453125 120.421875 C 51.476562 120.421875 44.285156 114.964844 44.089844 108 L 44.03125 106 L 77.277344 105.050781 L 77.335938 107.050781 C 77.4375 110.609375 75.722656 113.964844 72.511719 116.5 C 69.472656 118.898438 65.414062 120.289062 61.078125 120.414062 C 60.867188 120.421875 60.660156 120.421875 60.453125 120.421875" fill="#ff1d25"/></g><g id="change3_2"><path d="M 79.222656 102.996094 L 75.222656 103.109375 L 60.597656 103.523438 L 45.972656 103.941406 L 41.972656 104.054688 L 42.089844 108.054688 C 42.320312 116.113281 50.386719 122.421875 60.453125 122.421875 C 60.679688 122.421875 60.910156 122.421875 61.136719 122.414062 C 65.898438 122.277344 70.378906 120.734375 73.75 118.070312 C 75.503906 116.6875 76.878906 115.066406 77.839844 113.257812 C 78.894531 111.273438 79.398438 109.164062 79.335938 106.996094 Z M 75.335938 107.109375 C 75.507812 113.121094 69.097656 118.183594 61.023438 118.414062 C 60.832031 118.417969 60.640625 118.421875 60.453125 118.421875 C 52.632812 118.421875 46.257812 113.8125 46.089844 107.941406 C 46.089844 107.941406 52.636719 107.753906 60.710938 107.523438 C 68.789062 107.296875 75.335938 107.109375 75.335938 107.109375" fill="#fff"/></g><g id="change2_3"><path d="M 17.773438 53.085938 C 17.636719 53.085938 17.496094 53.074219 17.359375 53.0625 L 16.859375 53.003906 C 14.832031 52.789062 13.210938 50.929688 13.261719 48.859375 C 13.613281 34.097656 21.019531 21.179688 33.582031 13.421875 C 34.214844 13.03125 34.949219 12.824219 35.710938 12.824219 C 37.015625 12.824219 38.238281 13.429688 38.984375 14.441406 L 39.269531 14.824219 C 39.90625 15.6875 40.148438 16.710938 39.953125 17.714844 C 39.765625 18.6875 39.164062 19.554688 38.304688 20.085938 C 27.851562 26.539062 21.6875 37.285156 21.398438 49.570312 C 21.347656 51.539062 19.757812 53.085938 17.773438 53.085938" fill="#ff1d25"/></g><g id="change3_3"><path d="M 35.710938 10.824219 C 34.578125 10.824219 33.480469 11.132812 32.53125 11.722656 C 29.292969 13.71875 26.335938 16.085938 23.742188 18.753906 C 21.167969 21.394531 18.941406 24.347656 17.117188 27.527344 C 15.296875 30.703125 13.875 34.117188 12.890625 37.675781 C 11.902344 41.261719 11.351562 45.007812 11.261719 48.8125 C 11.226562 50.316406 11.761719 51.785156 12.765625 52.941406 C 13.773438 54.105469 15.152344 54.832031 16.644531 54.992188 L 16.863281 55.019531 L 17.121094 55.046875 L 17.136719 55.050781 L 17.148438 55.050781 C 17.355469 55.074219 17.566406 55.085938 17.773438 55.085938 C 20.851562 55.085938 23.324219 52.683594 23.398438 49.621094 C 23.671875 38.023438 29.488281 27.878906 39.355469 21.785156 C 40.691406 20.960938 41.621094 19.617188 41.917969 18.097656 C 42.214844 16.558594 41.839844 14.9375 40.890625 13.648438 L 40.882812 13.640625 L 40.875 13.628906 L 40.691406 13.382812 L 40.585938 13.242188 C 39.464844 11.726562 37.644531 10.824219 35.710938 10.824219 Z M 35.710938 14.824219 C 36.355469 14.824219 36.992188 15.113281 37.375 15.628906 C 37.472656 15.761719 37.570312 15.890625 37.667969 16.023438 C 38.269531 16.839844 38.066406 17.878906 37.253906 18.382812 C 26.230469 25.1875 19.703125 36.570312 19.398438 49.523438 C 19.375 50.414062 18.683594 51.082031 17.773438 51.082031 C 17.707031 51.082031 17.640625 51.078125 17.570312 51.070312 C 17.40625 51.054688 17.246094 51.035156 17.082031 51.015625 C 16.078125 50.910156 15.238281 49.960938 15.261719 48.90625 C 15.597656 34.859375 22.675781 22.507812 34.636719 15.125 C 34.960938 14.921875 35.335938 14.824219 35.710938 14.824219" fill="#fff"/></g><g id="change2_4"><path d="M 6.371094 53.355469 C 6.296875 53.355469 6.226562 53.355469 6.152344 53.351562 L 5.644531 53.316406 C 4.636719 53.257812 3.703125 52.796875 3.019531 52.015625 C 2.292969 51.1875 1.925781 50.070312 2.011719 48.949219 C 3.234375 32.804688 11.570312 18.265625 24.890625 9.054688 C 25.597656 8.566406 26.425781 8.304688 27.277344 8.304688 C 28.589844 8.304688 29.792969 8.933594 30.492188 9.984375 L 30.777344 10.40625 C 31.953125 12.183594 31.472656 14.542969 29.679688 15.785156 C 18.363281 23.609375 11.277344 35.96875 10.242188 49.6875 C 10.082031 51.746094 8.382812 53.355469 6.371094 53.355469" fill="#ff1d25"/></g><g id="change3_4"><path d="M 27.277344 6.304688 C 26.015625 6.304688 24.796875 6.6875 23.75 7.410156 C 20.339844 9.769531 17.195312 12.507812 14.40625 15.546875 C 11.644531 18.554688 9.214844 21.875 7.1875 25.410156 C 5.15625 28.949219 3.519531 32.722656 2.320312 36.621094 C 1.105469 40.566406 0.328125 44.664062 0.015625 48.800781 C -0.109375 50.449219 0.4375 52.105469 1.515625 53.335938 C 2.554688 54.519531 3.976562 55.222656 5.523438 55.316406 L 5.769531 55.332031 L 6.011719 55.347656 L 6.039062 55.347656 C 6.148438 55.355469 6.261719 55.355469 6.371094 55.355469 C 7.894531 55.355469 9.34375 54.765625 10.441406 53.695312 C 11.488281 52.675781 12.125 51.308594 12.234375 49.839844 C 13.226562 36.722656 20 24.910156 30.816406 17.433594 C 32.078125 16.558594 32.949219 15.265625 33.273438 13.789062 C 33.621094 12.226562 33.328125 10.632812 32.445312 9.300781 L 32.429688 9.277344 L 32.15625 8.871094 C 31.082031 7.261719 29.257812 6.304688 27.277344 6.304688 Z M 27.277344 10.304688 C 27.898438 10.304688 28.488281 10.582031 28.828125 11.097656 C 28.921875 11.234375 29.015625 11.375 29.109375 11.515625 C 29.683594 12.378906 29.414062 13.535156 28.542969 14.140625 C 16.746094 22.296875 9.328125 35.234375 8.246094 49.535156 C 8.167969 50.558594 7.359375 51.355469 6.371094 51.355469 C 6.335938 51.355469 6.300781 51.355469 6.265625 51.351562 C 6.097656 51.34375 5.929688 51.332031 5.765625 51.320312 C 4.730469 51.261719 3.917969 50.265625 4.007812 49.101562 C 5.179688 33.585938 13.230469 19.550781 26.027344 10.699219 C 26.414062 10.433594 26.851562 10.304688 27.277344 10.304688" fill="#fff"/></g><g id="change2_5"><path d="M 100.386719 50.730469 C 98.488281 50.730469 96.9375 49.308594 96.785156 47.425781 C 95.792969 35.175781 89.03125 24.796875 78.226562 18.945312 C 77.335938 18.464844 76.6875 17.636719 76.445312 16.675781 C 76.195312 15.683594 76.375 14.648438 76.953125 13.761719 L 77.230469 13.347656 C 77.957031 12.234375 79.265625 11.546875 80.640625 11.546875 C 81.316406 11.546875 81.980469 11.710938 82.5625 12.027344 C 95.546875 19.058594 103.675781 31.53125 104.867188 46.25 C 105.035156 48.316406 103.523438 50.265625 101.496094 50.597656 L 101.015625 50.679688 C 100.804688 50.714844 100.59375 50.730469 100.386719 50.730469" fill="#ff1d25"/></g><g id="change3_5"><path d="M 80.640625 9.542969 C 78.601562 9.542969 76.65625 10.578125 75.5625 12.242188 L 75.363281 12.542969 L 75.277344 12.671875 C 74.402344 14.011719 74.121094 15.648438 74.507812 17.167969 C 74.886719 18.667969 75.894531 19.957031 77.269531 20.703125 C 87.472656 26.226562 93.855469 36.023438 94.789062 47.582031 C 95.03125 50.519531 97.433594 52.730469 100.386719 52.730469 C 100.703125 52.730469 101.023438 52.703125 101.339844 52.652344 L 101.351562 52.652344 L 101.367188 52.648438 L 101.835938 52.566406 C 103.320312 52.320312 104.652344 51.515625 105.59375 50.296875 C 106.53125 49.085938 106.980469 47.589844 106.859375 46.089844 C 106.554688 42.296875 105.792969 38.585938 104.597656 35.0625 C 103.414062 31.566406 101.800781 28.238281 99.800781 25.171875 C 97.800781 22.101562 95.410156 19.28125 92.6875 16.785156 C 89.945312 14.273438 86.859375 12.078125 83.511719 10.265625 C 82.640625 9.792969 81.648438 9.542969 80.640625 9.542969 Z M 80.640625 13.546875 C 80.972656 13.546875 81.304688 13.621094 81.609375 13.785156 C 93.964844 20.476562 101.738281 32.402344 102.871094 46.410156 C 102.957031 47.460938 102.175781 48.457031 101.175781 48.621094 C 101.015625 48.648438 100.851562 48.675781 100.691406 48.703125 C 100.585938 48.722656 100.484375 48.730469 100.386719 48.730469 C 99.527344 48.730469 98.847656 48.117188 98.777344 47.261719 C 97.734375 34.347656 90.570312 23.355469 79.179688 17.1875 C 78.335938 16.730469 78.078125 15.703125 78.628906 14.855469 C 78.722656 14.71875 78.8125 14.582031 78.902344 14.445312 C 79.273438 13.875 79.953125 13.546875 80.640625 13.546875" fill="#fff"/></g><g id="change2_6"><path d="M 111.609375 50.359375 C 109.675781 50.359375 108.015625 48.875 107.753906 46.910156 C 105.9375 33.269531 98.160156 21.339844 86.414062 14.171875 C 84.554688 13.03125 83.941406 10.699219 85.011719 8.863281 L 85.273438 8.425781 C 85.949219 7.273438 87.230469 6.558594 88.621094 6.558594 C 89.394531 6.558594 90.152344 6.773438 90.816406 7.179688 C 104.636719 15.613281 113.789062 29.65625 115.925781 45.707031 C 116.074219 46.820312 115.773438 47.953125 115.09375 48.824219 C 114.457031 49.640625 113.550781 50.15625 112.550781 50.273438 L 112.042969 50.335938 C 111.898438 50.351562 111.753906 50.359375 111.609375 50.359375" fill="#ff1d25"/></g><g id="change3_6"><path d="M 88.621094 4.558594 C 86.527344 4.558594 84.585938 5.648438 83.550781 7.40625 L 83.449219 7.578125 L 83.300781 7.828125 L 83.292969 7.84375 L 83.285156 7.851562 C 82.480469 9.230469 82.277344 10.839844 82.710938 12.382812 C 83.121094 13.839844 84.066406 15.078125 85.371094 15.875 C 96.597656 22.730469 104.03125 34.136719 105.769531 47.171875 C 106.164062 50.132812 108.675781 52.359375 111.609375 52.359375 C 111.828125 52.359375 112.050781 52.347656 112.269531 52.320312 L 112.28125 52.320312 L 112.296875 52.316406 L 112.554688 52.285156 L 112.78125 52.261719 C 114.320312 52.078125 115.699219 51.296875 116.671875 50.054688 C 117.675781 48.765625 118.128906 47.082031 117.910156 45.441406 C 117.363281 41.332031 116.355469 37.285156 114.917969 33.414062 C 113.496094 29.589844 111.648438 25.914062 109.421875 22.5 C 107.191406 19.082031 104.578125 15.90625 101.652344 13.0625 C 98.691406 10.183594 95.398438 7.632812 91.859375 5.46875 C 90.878906 4.871094 89.761719 4.558594 88.621094 4.558594 Z M 88.621094 8.558594 C 89.007812 8.558594 89.410156 8.664062 89.773438 8.886719 C 103.054688 16.992188 111.886719 30.546875 113.941406 45.96875 C 114.097656 47.125 113.34375 48.167969 112.316406 48.285156 C 112.148438 48.304688 111.984375 48.324219 111.816406 48.347656 C 111.746094 48.355469 111.675781 48.359375 111.609375 48.359375 C 110.664062 48.359375 109.867188 47.625 109.734375 46.644531 C 107.84375 32.429688 99.699219 19.933594 87.457031 12.460938 C 86.554688 11.910156 86.21875 10.765625 86.742188 9.871094 C 86.828125 9.726562 86.910156 9.585938 86.996094 9.441406 C 87.328125 8.871094 87.957031 8.558594 88.621094 8.558594" fill="#fff"/></g><g id="change3_7"><path d="M 228.535156 83.882812 L 218.949219 65.964844 L 215.882812 66.238281 L 216.359375 91.859375 L 219.707031 91.5625 L 219.363281 73.230469 L 228.910156 90.746094 L 232.027344 90.472656 L 231.550781 64.847656 L 228.183594 65.144531 L 228.535156 83.882812" fill="#fff"/></g><g id="change3_8"><path d="M 238.191406 64.257812 L 236.457031 64.410156 L 236.9375 90.054688 L 238.671875 89.898438 L 240.390625 89.746094 L 250.589844 88.84375 L 250.527344 85.542969 L 240.328125 86.449219 L 240.183594 78.65625 L 248.980469 77.875 L 248.917969 74.59375 L 240.121094 75.375 L 239.972656 67.402344 L 250.171875 66.496094 L 250.109375 63.199219 L 239.910156 64.105469 L 238.191406 64.257812" fill="#fff"/></g><g id="change3_9"><path d="M 260.84375 87.933594 L 264.421875 69.933594 L 268.449219 87.257812 L 272.074219 86.933594 L 276.46875 60.863281 L 272.945312 61.175781 L 269.953125 81.417969 L 265.375 61.847656 L 262.941406 62.0625 L 259.105469 82.382812 L 255.386719 62.730469 L 251.863281 63.046875 L 257.195312 88.257812 L 260.84375 87.933594" fill="#fff"/></g><g id="change3_10"><path d="M 153.574219 149.777344 C 153.632812 152.878906 152.898438 155.332031 151.378906 157.140625 C 149.855469 158.949219 147.65625 159.980469 144.789062 160.234375 C 141.945312 160.488281 139.738281 159.847656 138.167969 158.3125 C 136.59375 156.777344 135.78125 154.460938 135.722656 151.359375 L 134.945312 109.859375 L 127.097656 110.558594 L 127.867188 151.777344 C 127.9375 155.519531 128.648438 158.65625 129.996094 161.1875 C 131.347656 163.71875 133.285156 165.558594 135.808594 166.714844 C 138.332031 167.871094 141.371094 168.289062 144.933594 167.972656 C 148.492188 167.65625 151.515625 166.699219 154 165.101562 C 156.484375 163.5 158.359375 161.320312 159.625 158.558594 C 160.890625 155.792969 161.488281 152.542969 161.421875 148.800781 L 160.648438 107.578125 L 152.800781 108.277344 L 153.574219 149.777344" fill="#fff"/></g><g id="change3_11"><path d="M 196.613281 124.589844 C 196.640625 126.195312 196.390625 127.628906 195.855469 128.894531 C 195.320312 130.160156 194.53125 131.167969 193.496094 131.914062 C 192.457031 132.664062 191.246094 133.101562 189.867188 133.222656 L 178.789062 134.203125 L 178.402344 113.515625 L 189.480469 112.53125 C 190.863281 112.410156 192.082031 112.636719 193.144531 113.210938 C 194.207031 113.785156 195.027344 114.664062 195.609375 115.84375 C 196.191406 117.023438 196.496094 118.441406 196.527344 120.101562 Z M 197.207031 106.222656 C 194.910156 105.167969 192.210938 104.78125 189.101562 105.054688 L 178.261719 106.015625 L 174.597656 106.34375 L 170.410156 106.714844 L 171.503906 165.015625 L 179.351562 164.316406 L 178.929688 141.703125 L 189.769531 140.742188 C 192.851562 140.46875 195.519531 139.609375 197.78125 138.164062 C 200.042969 136.71875 201.769531 134.777344 202.964844 132.34375 C 204.15625 129.90625 204.722656 127.109375 204.660156 123.957031 L 204.574219 119.304688 C 204.515625 116.125 203.847656 113.414062 202.566406 111.171875 C 201.289062 108.929688 199.5 107.277344 197.207031 106.222656" fill="#fff"/></g><g id="change3_12"><path d="M 239.5 142.675781 C 239.550781 145.480469 238.820312 147.714844 237.308594 149.375 C 235.796875 151.035156 233.617188 151.992188 230.777344 152.242188 L 221.652344 153.054688 L 220.84375 109.75 L 229.96875 108.941406 C 232.808594 108.6875 235.015625 109.253906 236.585938 110.640625 C 238.152344 112.027344 238.964844 114.125 239.019531 116.933594 Z M 238.867188 102.566406 C 236.296875 101.511719 233.199219 101.140625 229.589844 101.464844 L 220.703125 102.25 L 217.992188 102.492188 L 212.851562 102.949219 L 213.941406 161.246094 L 219.082031 160.792969 L 221.789062 160.550781 L 230.636719 159.765625 C 234.25 159.445312 237.324219 158.53125 239.867188 157.019531 C 242.40625 155.511719 244.324219 153.453125 245.617188 150.847656 C 246.914062 148.242188 247.527344 145.203125 247.464844 141.726562 L 246.992188 116.464844 C 246.925781 112.964844 246.199219 110.035156 244.8125 107.683594 C 243.425781 105.328125 241.445312 103.625 238.867188 102.566406" fill="#fff"/></g><g id="change3_13"><path d="M 265.195312 136.460938 L 271.726562 109.371094 L 279.246094 135.210938 Z M 268.042969 98.050781 L 251.757812 157.894531 L 260.207031 157.144531 L 263.355469 144.09375 L 281.367188 142.492188 L 284.992188 154.945312 L 293.441406 154.195312 L 274.976562 97.4375 L 268.042969 98.050781" fill="#fff"/></g><g id="change3_14"><path d="M 291.894531 103.445312 L 305.203125 102.265625 L 306.152344 153.066406 L 314.003906 152.371094 L 313.054688 101.566406 L 326.402344 100.382812 L 326.261719 92.886719 L 291.753906 95.945312 L 291.894531 103.445312" fill="#fff"/></g><g id="change3_15"><path d="M 364.21875 97.027344 L 364.078125 89.53125 L 340.886719 91.585938 L 336.980469 91.933594 L 333.035156 92.285156 L 334.125 150.582031 L 338.070312 150.234375 L 341.976562 149.886719 L 365.167969 147.828125 L 365.027344 140.332031 L 341.835938 142.390625 L 341.503906 124.667969 L 361.511719 122.890625 L 361.371094 115.433594 L 341.367188 117.210938 L 341.027344 99.085938 L 364.21875 97.027344" fill="#fff"/></g></g></svg>